<svg width="297" height="61" viewBox="0 0 297 61" fill="none" xmlns="http://www.w3.org/2000/svg">
<circle cx="30" cy="31" r="30" fill="#12372A"/>
<path d="M35.9796 30.5443L44.1813 23.4795V37.5284L35.9796 30.5443ZM25.4111 31.7407L28.2913 34.2195C28.7433 34.6002 29.3326 34.8302 29.9767 34.8302H29.9993H30.0167C30.662 34.8302 31.2514 34.5989 31.7087 34.2155L31.7047 34.2181L34.5849 31.7394L43.3399 39.1941H16.6601L25.4111 31.7407ZM16.6481 21.8045H43.3559L30.5274 32.8512C30.3837 32.9654 30.2048 33.0271 30.0207 33.0257H30.002H29.9847C29.7999 33.027 29.6204 32.9649 29.4766 32.8499L29.478 32.8512L16.6481 21.8045ZM15.8201 23.4782L24.0204 30.543L15.8201 37.5231V23.4782ZM44.6213 20.2512C44.3013 20.0925 43.9252 20 43.5266 20H16.4788C16.0925 20.0015 15.7116 20.0906 15.3654 20.2604L15.3801 20.2538C14.9665 20.4567 14.6183 20.77 14.3745 21.1584C14.1307 21.5467 14.001 21.9949 14 22.4523V38.5437C14.0007 39.195 14.2619 39.8193 14.7264 40.2798C15.1909 40.7403 15.8206 40.9993 16.4774 41H43.5226C44.1794 40.9993 44.8091 40.7403 45.2736 40.2798C45.7381 39.8193 45.9993 39.195 46 38.5437V22.4523C46 21.4912 45.4413 20.6584 44.6279 20.2578L44.6133 20.2512H44.6213Z" fill="#F1C30C"/>
<path d="M82.5705 41.586L84.1515 42.4445C83.7662 42.9828 83.276 43.4135 82.681 43.7365C82.0917 44.0595 81.4513 44.221 80.76 44.221C79.978 44.221 79.264 44.0198 78.618 43.6175C77.9777 43.2152 77.4648 42.6768 77.0795 42.0025C76.6998 41.3225 76.51 40.5717 76.51 39.75C76.51 39.1267 76.6205 38.5458 76.8415 38.0075C77.0625 37.4635 77.3657 36.9875 77.751 36.5795C78.142 36.1658 78.5953 35.8428 79.111 35.6105C79.6267 35.3782 80.1763 35.262 80.76 35.262C81.4513 35.262 82.0917 35.4235 82.681 35.7465C83.276 36.0695 83.7662 36.503 84.1515 37.047L82.5705 37.9055C82.3325 37.6222 82.0548 37.4068 81.7375 37.2595C81.4202 37.1065 81.0943 37.03 80.76 37.03C80.2953 37.03 79.8732 37.1575 79.4935 37.4125C79.1195 37.6618 78.822 37.9933 78.601 38.407C78.3857 38.815 78.278 39.2627 78.278 39.75C78.278 40.2317 78.3885 40.6793 78.6095 41.093C78.8305 41.501 79.128 41.8297 79.502 42.079C79.8817 42.3283 80.301 42.453 80.76 42.453C81.1113 42.453 81.4457 42.3737 81.763 42.215C82.0803 42.0563 82.3495 41.8467 82.5705 41.586ZM89.2102 44.221C88.4282 44.221 87.7142 44.0198 87.0682 43.6175C86.4279 43.2152 85.915 42.6768 85.5297 42.0025C85.15 41.3225 84.9602 40.5717 84.9602 39.75C84.9602 39.1267 85.0707 38.5458 85.2917 38.0075C85.5127 37.4635 85.8159 36.9875 86.2012 36.5795C86.5922 36.1658 87.0455 35.8428 87.5612 35.6105C88.0769 35.3782 88.6265 35.262 89.2102 35.262C89.9922 35.262 90.7034 35.4632 91.3437 35.8655C91.9897 36.2678 92.5025 36.809 92.8822 37.489C93.2675 38.169 93.4602 38.9227 93.4602 39.75C93.4602 40.3677 93.3497 40.9457 93.1287 41.484C92.9077 42.0223 92.6017 42.4983 92.2107 42.912C91.8254 43.32 91.3749 43.6402 90.8592 43.8725C90.3492 44.1048 89.7995 44.221 89.2102 44.221ZM89.2102 42.453C89.6805 42.453 90.1027 42.3283 90.4767 42.079C90.8507 41.8297 91.1454 41.501 91.3607 41.093C91.5817 40.6793 91.6922 40.2317 91.6922 39.75C91.6922 39.257 91.5789 38.8037 91.3522 38.39C91.1312 37.9763 90.8337 37.6477 90.4597 37.404C90.0857 37.1547 89.6692 37.03 89.2102 37.03C88.7455 37.03 88.3234 37.1547 87.9437 37.404C87.5697 37.6533 87.2722 37.9848 87.0512 38.3985C86.8359 38.8122 86.7282 39.2627 86.7282 39.75C86.7282 40.2543 86.8415 40.7105 87.0682 41.1185C87.2949 41.5265 87.5952 41.8523 87.9692 42.096C88.3489 42.334 88.7625 42.453 89.2102 42.453ZM102.483 38.6705V44H100.715V39.104C100.715 38.7243 100.622 38.3787 100.435 38.067C100.254 37.7553 100.007 37.5088 99.6955 37.3275C99.3895 37.1405 99.0438 37.047 98.6585 37.047C98.2845 37.047 97.9416 37.1405 97.63 37.3275C97.3183 37.5088 97.069 37.7553 96.882 38.067C96.695 38.3787 96.6015 38.7243 96.6015 39.104V44H94.8335V35.5H96.6015V36.401C96.8961 36.0497 97.2588 35.772 97.6895 35.568C98.1201 35.364 98.5848 35.262 99.0835 35.262C99.7125 35.262 100.285 35.415 100.8 35.721C101.316 36.027 101.724 36.4378 102.024 36.9535C102.33 37.4692 102.483 38.0415 102.483 38.6705ZM108.668 37.268H106.883L106.875 44H105.107L105.115 37.268H103.764V35.5H105.115L105.107 32.831H106.875L106.883 35.5H108.668V37.268ZM116.604 35.5H118.372V44H116.595L116.527 42.7675C116.278 43.2038 115.941 43.5552 115.516 43.8215C115.091 44.0878 114.589 44.221 114.011 44.221C113.388 44.221 112.801 44.1048 112.252 43.8725C111.702 43.6345 111.218 43.3058 110.798 42.8865C110.385 42.4672 110.062 41.9855 109.829 41.4415C109.597 40.8918 109.481 40.3025 109.481 39.6735C109.481 39.0672 109.594 38.4977 109.821 37.965C110.047 37.4267 110.362 36.9563 110.764 36.554C111.167 36.1517 111.631 35.8372 112.158 35.6105C112.691 35.3782 113.26 35.262 113.867 35.262C114.484 35.262 115.028 35.4037 115.499 35.687C115.975 35.9647 116.369 36.3217 116.68 36.758L116.604 35.5ZM113.969 42.5125C114.467 42.5125 114.904 42.3907 115.278 42.147C115.652 41.8977 115.941 41.5633 116.145 41.144C116.354 40.7247 116.459 40.26 116.459 39.75C116.459 39.2343 116.354 38.7668 116.145 38.3475C115.935 37.9282 115.643 37.5967 115.269 37.353C114.901 37.1037 114.467 36.979 113.969 36.979C113.476 36.979 113.025 37.1037 112.617 37.353C112.209 37.6023 111.886 37.9367 111.648 38.356C111.41 38.7753 111.291 39.24 111.291 39.75C111.291 40.2657 111.413 40.7332 111.657 41.1525C111.906 41.5662 112.232 41.8977 112.634 42.147C113.042 42.3907 113.487 42.5125 113.969 42.5125ZM125.452 41.586L127.033 42.4445C126.648 42.9828 126.158 43.4135 125.563 43.7365C124.974 44.0595 124.333 44.221 123.642 44.221C122.86 44.221 122.146 44.0198 121.5 43.6175C120.86 43.2152 120.347 42.6768 119.961 42.0025C119.582 41.3225 119.392 40.5717 119.392 39.75C119.392 39.1267 119.502 38.5458 119.723 38.0075C119.944 37.4635 120.248 36.9875 120.633 36.5795C121.024 36.1658 121.477 35.8428 121.993 35.6105C122.509 35.3782 123.058 35.262 123.642 35.262C124.333 35.262 124.974 35.4235 125.563 35.7465C126.158 36.0695 126.648 36.503 127.033 37.047L125.452 37.9055C125.214 37.6222 124.937 37.4068 124.619 37.2595C124.302 37.1065 123.976 37.03 123.642 37.03C123.177 37.03 122.755 37.1575 122.375 37.4125C122.001 37.6618 121.704 37.9933 121.483 38.407C121.268 38.815 121.16 39.2627 121.16 39.75C121.16 40.2317 121.27 40.6793 121.491 41.093C121.712 41.501 122.01 41.8297 122.384 42.079C122.764 42.3283 123.183 42.453 123.642 42.453C123.993 42.453 124.328 42.3737 124.645 42.215C124.962 42.0563 125.231 41.8467 125.452 41.586ZM133.056 37.268H131.271L131.262 44H129.494L129.503 37.268H128.151V35.5H129.503L129.494 32.831H131.262L131.271 35.5H133.056V37.268ZM141.208 45.938C140.239 45.938 139.332 45.7737 138.488 45.445C137.649 45.122 136.909 44.663 136.269 44.068C135.634 43.4787 135.136 42.7817 134.773 41.977C134.416 41.1667 134.238 40.2798 134.238 39.3165C134.238 38.3588 134.416 37.4578 134.773 36.6135C135.136 35.7692 135.634 35.0297 136.269 34.395C136.909 33.7547 137.652 33.256 138.496 32.899C139.34 32.5363 140.244 32.355 141.208 32.355C142.171 32.355 143.075 32.5363 143.919 32.899C144.763 33.2617 145.503 33.7632 146.138 34.4035C146.772 35.0438 147.268 35.7862 147.625 36.6305C147.988 37.4692 148.169 38.3645 148.169 39.3165C148.169 39.8322 148.104 40.3422 147.974 40.8465C147.849 41.3452 147.662 41.7985 147.413 42.2065C147.169 42.6088 146.869 42.9318 146.512 43.1755C146.155 43.4135 145.747 43.5325 145.288 43.5325C144.948 43.5325 144.605 43.4588 144.259 43.3115C143.919 43.1585 143.627 42.9545 143.384 42.6995C143.14 42.4388 142.993 42.1527 142.942 41.841C142.721 42.1017 142.443 42.3113 142.109 42.47C141.78 42.623 141.406 42.6995 140.987 42.6995C140.369 42.6995 139.802 42.5493 139.287 42.249C138.777 41.943 138.369 41.535 138.063 41.025C137.762 40.5093 137.612 39.9398 137.612 39.3165C137.612 38.6932 137.762 38.1265 138.063 37.6165C138.369 37.1065 138.777 36.7013 139.287 36.401C139.802 36.095 140.369 35.942 140.987 35.942C141.383 35.942 141.769 36.0128 142.143 36.1545C142.522 36.2962 142.817 36.4917 143.027 36.741V36.112L144.378 36.3755V40.9825C144.378 41.2148 144.455 41.4047 144.608 41.552C144.766 41.6937 144.956 41.7645 145.177 41.7645C145.466 41.7645 145.698 41.6313 145.874 41.365C146.055 41.093 146.189 40.7672 146.274 40.3875C146.359 40.0022 146.401 39.6452 146.401 39.3165C146.401 38.5968 146.265 37.9225 145.993 37.2935C145.721 36.6645 145.344 36.112 144.863 35.636C144.387 35.16 143.834 34.7888 143.205 34.5225C142.582 34.2562 141.916 34.123 141.208 34.123C140.494 34.123 139.822 34.259 139.193 34.531C138.564 34.7973 138.009 35.1685 137.527 35.6445C137.051 36.1205 136.677 36.673 136.405 37.302C136.139 37.9253 136.006 38.5968 136.006 39.3165C136.006 40.0362 136.139 40.6935 136.405 41.2885C136.671 41.8835 137.043 42.3963 137.519 42.827C138 43.252 138.553 43.5835 139.176 43.8215C139.805 44.0595 140.482 44.1785 141.208 44.1785V45.938ZM141.123 41.3565C141.502 41.3565 141.834 41.2573 142.117 41.059C142.4 40.8607 142.621 40.6028 142.78 40.2855C142.939 39.9625 143.018 39.6225 143.018 39.2655C143.018 38.9085 142.942 38.5827 142.789 38.288C142.636 37.9877 142.417 37.7468 142.134 37.5655C141.851 37.3785 141.514 37.285 141.123 37.285C140.749 37.285 140.406 37.3757 140.094 37.557C139.788 37.7383 139.542 37.9848 139.355 38.2965C139.173 38.6025 139.083 38.9425 139.083 39.3165C139.083 39.6962 139.176 40.0418 139.363 40.3535C139.55 40.6595 139.797 40.9032 140.103 41.0845C140.414 41.2658 140.754 41.3565 141.123 41.3565ZM156.489 31.25H158.257V44H156.489V42.7505C156.211 43.1925 155.849 43.5495 155.401 43.8215C154.953 44.0878 154.429 44.221 153.829 44.221C153.211 44.221 152.633 44.1048 152.095 43.8725C151.556 43.6402 151.08 43.32 150.667 42.912C150.259 42.4983 149.938 42.0223 149.706 41.484C149.474 40.9457 149.358 40.3677 149.358 39.75C149.358 39.1323 149.474 38.5543 149.706 38.016C149.938 37.472 150.259 36.996 150.667 36.588C151.08 36.1743 151.556 35.8513 152.095 35.619C152.633 35.3867 153.211 35.2705 153.829 35.2705C154.429 35.2705 154.953 35.4065 155.401 35.6785C155.849 35.9448 156.211 36.2962 156.489 36.7325V31.25ZM153.846 42.5125C154.344 42.5125 154.781 42.3907 155.155 42.147C155.529 41.8977 155.818 41.5633 156.022 41.144C156.231 40.7247 156.336 40.26 156.336 39.75C156.336 39.2343 156.231 38.7668 156.022 38.3475C155.812 37.9282 155.52 37.5967 155.146 37.353C154.778 37.1037 154.344 36.979 153.846 36.979C153.353 36.979 152.902 37.1037 152.494 37.353C152.092 37.6023 151.769 37.9367 151.525 38.356C151.287 38.7753 151.168 39.24 151.168 39.75C151.168 40.2657 151.29 40.7332 151.534 41.1525C151.783 41.5662 152.109 41.8977 152.511 42.147C152.919 42.3907 153.364 42.5125 153.846 42.5125ZM163.917 44.221C163.135 44.221 162.421 44.0198 161.775 43.6175C161.135 43.2152 160.622 42.6768 160.237 42.0025C159.857 41.3225 159.667 40.5717 159.667 39.75C159.667 39.1267 159.778 38.5458 159.999 38.0075C160.22 37.4635 160.523 36.9875 160.908 36.5795C161.299 36.1658 161.753 35.8428 162.268 35.6105C162.784 35.3782 163.334 35.262 163.917 35.262C164.699 35.262 165.41 35.4632 166.051 35.8655C166.697 36.2678 167.21 36.809 167.589 37.489C167.975 38.169 168.167 38.9227 168.167 39.75C168.167 40.3677 168.057 40.9457 167.836 41.484C167.615 42.0223 167.309 42.4983 166.918 42.912C166.532 43.32 166.082 43.6402 165.566 43.8725C165.056 44.1048 164.507 44.221 163.917 44.221ZM163.917 42.453C164.388 42.453 164.81 42.3283 165.184 42.079C165.558 41.8297 165.852 41.501 166.068 41.093C166.289 40.6793 166.399 40.2317 166.399 39.75C166.399 39.257 166.286 38.8037 166.059 38.39C165.838 37.9763 165.541 37.6477 165.167 37.404C164.793 37.1547 164.376 37.03 163.917 37.03C163.453 37.03 163.03 37.1547 162.651 37.404C162.277 37.6533 161.979 37.9848 161.758 38.3985C161.543 38.8122 161.435 39.2627 161.435 39.75C161.435 40.2543 161.549 40.7105 161.775 41.1185C162.002 41.5265 162.302 41.8523 162.676 42.096C163.056 42.334 163.47 42.453 163.917 42.453ZM169.541 44V35.5H171.309V36.401C171.603 36.0497 171.963 35.772 172.388 35.568C172.819 35.364 173.283 35.262 173.782 35.262C174.388 35.262 174.947 35.4093 175.457 35.704C175.967 35.993 176.372 36.3783 176.672 36.86C176.972 36.3783 177.372 35.993 177.871 35.704C178.375 35.4093 178.93 35.262 179.537 35.262C180.166 35.262 180.738 35.415 181.254 35.721C181.769 36.027 182.18 36.4378 182.486 36.9535C182.792 37.4692 182.945 38.0415 182.945 38.6705V44H181.177V39.121C181.177 38.747 181.086 38.4042 180.905 38.0925C180.724 37.7808 180.48 37.5287 180.174 37.336C179.868 37.1433 179.528 37.047 179.154 37.047C178.78 37.047 178.44 37.1377 178.134 37.319C177.828 37.5003 177.584 37.7468 177.403 38.0585C177.222 38.3702 177.131 38.7243 177.131 39.121V44H175.363V39.121C175.363 38.7243 175.272 38.3702 175.091 38.0585C174.91 37.7468 174.663 37.5003 174.352 37.319C174.046 37.1377 173.706 37.047 173.332 37.047C172.963 37.047 172.623 37.1433 172.312 37.336C172.006 37.5287 171.762 37.7808 171.581 38.0925C171.399 38.4042 171.309 38.747 171.309 39.121V44H169.541ZM191.095 35.5H192.863V44H191.086L191.018 42.7675C190.769 43.2038 190.432 43.5552 190.007 43.8215C189.582 44.0878 189.08 44.221 188.502 44.221C187.879 44.221 187.293 44.1048 186.743 43.8725C186.193 43.6345 185.709 43.3058 185.289 42.8865C184.876 42.4672 184.553 41.9855 184.32 41.4415C184.088 40.8918 183.972 40.3025 183.972 39.6735C183.972 39.0672 184.085 38.4977 184.312 37.965C184.539 37.4267 184.853 36.9563 185.255 36.554C185.658 36.1517 186.122 35.8372 186.649 35.6105C187.182 35.3782 187.752 35.262 188.358 35.262C188.976 35.262 189.52 35.4037 189.99 35.687C190.466 35.9647 190.86 36.3217 191.171 36.758L191.095 35.5ZM188.46 42.5125C188.959 42.5125 189.395 42.3907 189.769 42.147C190.143 41.8977 190.432 41.5633 190.636 41.144C190.846 40.7247 190.95 40.26 190.95 39.75C190.95 39.2343 190.846 38.7668 190.636 38.3475C190.426 37.9282 190.134 37.5967 189.76 37.353C189.392 37.1037 188.959 36.979 188.46 36.979C187.967 36.979 187.516 37.1037 187.108 37.353C186.7 37.6023 186.377 37.9367 186.139 38.356C185.901 38.7753 185.782 39.24 185.782 39.75C185.782 40.2657 185.904 40.7332 186.148 41.1525C186.397 41.5662 186.723 41.8977 187.125 42.147C187.533 42.3907 187.978 42.5125 188.46 42.5125ZM194.559 35.5H196.327V44H194.559V35.5ZM195.46 34.2675C195.188 34.2675 194.961 34.1797 194.78 34.004C194.599 33.8283 194.508 33.6073 194.508 33.341C194.508 33.0803 194.599 32.8622 194.78 32.6865C194.961 32.5052 195.185 32.4145 195.452 32.4145C195.712 32.4145 195.933 32.5052 196.115 32.6865C196.296 32.8622 196.387 33.0803 196.387 33.341C196.387 33.6073 196.296 33.8283 196.115 34.004C195.939 34.1797 195.721 34.2675 195.46 34.2675ZM205.944 38.6705V44H204.176V39.104C204.176 38.7243 204.083 38.3787 203.896 38.067C203.715 37.7553 203.468 37.5088 203.156 37.3275C202.85 37.1405 202.505 37.047 202.119 37.047C201.745 37.047 201.403 37.1405 201.091 37.3275C200.779 37.5088 200.53 37.7553 200.343 38.067C200.156 38.3787 200.062 38.7243 200.062 39.104V44H198.294V35.5H200.062V36.401C200.357 36.0497 200.72 35.772 201.15 35.568C201.581 35.364 202.046 35.262 202.544 35.262C203.173 35.262 203.746 35.415 204.261 35.721C204.777 36.027 205.185 36.4378 205.485 36.9535C205.791 37.4692 205.944 38.0415 205.944 38.6705ZM208.228 44.221C207.967 44.221 207.746 44.1303 207.565 43.949C207.389 43.7677 207.301 43.5467 207.301 43.286C207.301 43.031 207.389 42.8128 207.565 42.6315C207.746 42.4502 207.967 42.3595 208.228 42.3595C208.488 42.3595 208.709 42.4502 208.891 42.6315C209.072 42.8128 209.163 43.031 209.163 43.286C209.163 43.5467 209.072 43.7677 208.891 43.949C208.709 44.1303 208.488 44.221 208.228 44.221ZM216.645 41.586L218.226 42.4445C217.84 42.9828 217.35 43.4135 216.755 43.7365C216.166 44.0595 215.526 44.221 214.834 44.221C214.052 44.221 213.338 44.0198 212.692 43.6175C212.052 43.2152 211.539 42.6768 211.154 42.0025C210.774 41.3225 210.584 40.5717 210.584 39.75C210.584 39.1267 210.695 38.5458 210.916 38.0075C211.137 37.4635 211.44 36.9875 211.825 36.5795C212.216 36.1658 212.67 35.8428 213.185 35.6105C213.701 35.3782 214.251 35.262 214.834 35.262C215.526 35.262 216.166 35.4235 216.755 35.7465C217.35 36.0695 217.84 36.503 218.226 37.047L216.645 37.9055C216.407 37.6222 216.129 37.4068 215.812 37.2595C215.494 37.1065 215.169 37.03 214.834 37.03C214.37 37.03 213.947 37.1575 213.568 37.4125C213.194 37.6618 212.896 37.9933 212.675 38.407C212.46 38.815 212.352 39.2627 212.352 39.75C212.352 40.2317 212.463 40.6793 212.684 41.093C212.905 41.501 213.202 41.8297 213.576 42.079C213.956 42.3283 214.375 42.453 214.834 42.453C215.186 42.453 215.52 42.3737 215.837 42.215C216.155 42.0563 216.424 41.8467 216.645 41.586ZM223.284 44.221C222.502 44.221 221.788 44.0198 221.142 43.6175C220.502 43.2152 219.989 42.6768 219.604 42.0025C219.224 41.3225 219.034 40.5717 219.034 39.75C219.034 39.1267 219.145 38.5458 219.366 38.0075C219.587 37.4635 219.89 36.9875 220.275 36.5795C220.666 36.1658 221.12 35.8428 221.635 35.6105C222.151 35.3782 222.701 35.262 223.284 35.262C224.066 35.262 224.778 35.4632 225.418 35.8655C226.064 36.2678 226.577 36.809 226.956 37.489C227.342 38.169 227.534 38.9227 227.534 39.75C227.534 40.3677 227.424 40.9457 227.203 41.484C226.982 42.0223 226.676 42.4983 226.285 42.912C225.9 43.32 225.449 43.6402 224.933 43.8725C224.423 44.1048 223.874 44.221 223.284 44.221ZM223.284 42.453C223.755 42.453 224.177 42.3283 224.551 42.079C224.925 41.8297 225.22 41.501 225.435 41.093C225.656 40.6793 225.766 40.2317 225.766 39.75C225.766 39.257 225.653 38.8037 225.426 38.39C225.205 37.9763 224.908 37.6477 224.534 37.404C224.16 37.1547 223.743 37.03 223.284 37.03C222.82 37.03 222.398 37.1547 222.018 37.404C221.644 37.6533 221.346 37.9848 221.125 38.3985C220.91 38.8122 220.802 39.2627 220.802 39.75C220.802 40.2543 220.916 40.7105 221.142 41.1185C221.369 41.5265 221.669 41.8523 222.043 42.096C222.423 42.334 222.837 42.453 223.284 42.453ZM228.908 44V35.5H230.676V36.401C230.97 36.0497 231.33 35.772 231.755 35.568C232.186 35.364 232.651 35.262 233.149 35.262C233.756 35.262 234.314 35.4093 234.824 35.704C235.334 35.993 235.739 36.3783 236.039 36.86C236.34 36.3783 236.739 35.993 237.238 35.704C237.742 35.4093 238.297 35.262 238.904 35.262C239.533 35.262 240.105 35.415 240.621 35.721C241.136 36.027 241.547 36.4378 241.853 36.9535C242.159 37.4692 242.312 38.0415 242.312 38.6705V44H240.544V39.121C240.544 38.747 240.454 38.4042 240.272 38.0925C240.091 37.7808 239.847 37.5287 239.541 37.336C239.235 37.1433 238.895 37.047 238.521 37.047C238.147 37.047 237.807 37.1377 237.501 37.319C237.195 37.5003 236.952 37.7468 236.77 38.0585C236.589 38.3702 236.498 38.7243 236.498 39.121V44H234.73V39.121C234.73 38.7243 234.64 38.3702 234.458 38.0585C234.277 37.7468 234.03 37.5003 233.719 37.319C233.413 37.1377 233.073 37.047 232.699 37.047C232.33 37.047 231.99 37.1433 231.679 37.336C231.373 37.5287 231.129 37.7808 230.948 38.0925C230.766 38.4042 230.676 38.747 230.676 39.121V44H228.908Z" fill="#12372A"/>
<path d="M76.44 21V4.2H86.868V6.696H78.936V10.752H85.32V13.248H78.936V18.504H86.868V21H76.44ZM89.5181 21V9H92.0141V10.272C92.4301 9.776 92.9381 9.384 93.5381 9.096C94.1461 8.808 94.8021 8.664 95.5061 8.664C96.3621 8.664 97.1501 8.872 97.8701 9.288C98.5901 9.696 99.1621 10.24 99.5861 10.92C100.01 10.24 100.574 9.696 101.278 9.288C101.99 8.872 102.774 8.664 103.63 8.664C104.518 8.664 105.326 8.88 106.054 9.312C106.782 9.744 107.362 10.324 107.794 11.052C108.226 11.78 108.442 12.588 108.442 13.476V21H105.946V14.112C105.946 13.584 105.818 13.1 105.562 12.66C105.306 12.22 104.962 11.864 104.53 11.592C104.098 11.32 103.618 11.184 103.09 11.184C102.562 11.184 102.082 11.312 101.65 11.568C101.218 11.824 100.874 12.172 100.618 12.612C100.362 13.052 100.234 13.552 100.234 14.112V21H97.7381V14.112C97.7381 13.552 97.6101 13.052 97.3541 12.612C97.0981 12.172 96.7501 11.824 96.3101 11.568C95.8781 11.312 95.3981 11.184 94.8701 11.184C94.3501 11.184 93.8701 11.32 93.4301 11.592C92.9981 11.864 92.6541 12.22 92.3981 12.66C92.1421 13.1 92.0141 13.584 92.0141 14.112V21H89.5181ZM119.948 9H122.444V21H119.936L119.84 19.26C119.488 19.876 119.012 20.372 118.412 20.748C117.812 21.124 117.104 21.312 116.288 21.312C115.408 21.312 114.58 21.148 113.804 20.82C113.028 20.484 112.344 20.02 111.752 19.428C111.168 18.836 110.712 18.156 110.384 17.388C110.056 16.612 109.892 15.78 109.892 14.892C109.892 14.036 110.052 13.232 110.372 12.48C110.692 11.72 111.136 11.056 111.704 10.488C112.272 9.92 112.928 9.476 113.672 9.156C114.424 8.828 115.228 8.664 116.084 8.664C116.956 8.664 117.724 8.864 118.388 9.264C119.06 9.656 119.616 10.16 120.056 10.776L119.948 9ZM116.228 18.9C116.932 18.9 117.548 18.728 118.076 18.384C118.604 18.032 119.012 17.56 119.3 16.968C119.596 16.376 119.744 15.72 119.744 15C119.744 14.272 119.596 13.612 119.3 13.02C119.004 12.428 118.592 11.96 118.064 11.616C117.544 11.264 116.932 11.088 116.228 11.088C115.532 11.088 114.896 11.264 114.32 11.616C113.744 11.968 113.288 12.44 112.952 13.032C112.616 13.624 112.448 14.28 112.448 15C112.448 15.728 112.62 16.388 112.964 16.98C113.316 17.564 113.776 18.032 114.344 18.384C114.92 18.728 115.548 18.9 116.228 18.9ZM124.838 9H127.334V21H124.838V9ZM126.11 7.26C125.726 7.26 125.406 7.136 125.15 6.888C124.894 6.64 124.766 6.328 124.766 5.952C124.766 5.584 124.894 5.276 125.15 5.028C125.406 4.772 125.722 4.644 126.098 4.644C126.466 4.644 126.778 4.772 127.034 5.028C127.29 5.276 127.418 5.584 127.418 5.952C127.418 6.328 127.29 6.64 127.034 6.888C126.786 7.136 126.478 7.26 126.11 7.26ZM130.253 21V3H132.749V21H130.253ZM147.013 4.2H149.929L156.037 21H153.397L152.233 17.808H144.709L143.557 21H140.905L147.013 4.2ZM145.633 15.312H151.309L148.465 7.512L145.633 15.312ZM166.601 3H169.096V21H166.601V19.236C166.209 19.86 165.697 20.364 165.065 20.748C164.433 21.124 163.693 21.312 162.845 21.312C161.973 21.312 161.157 21.148 160.397 20.82C159.637 20.492 158.965 20.04 158.381 19.464C157.805 18.88 157.353 18.208 157.025 17.448C156.697 16.688 156.533 15.872 156.533 15C156.533 14.128 156.697 13.312 157.025 12.552C157.353 11.784 157.805 11.112 158.381 10.536C158.965 9.952 159.637 9.496 160.397 9.168C161.157 8.84 161.973 8.676 162.845 8.676C163.693 8.676 164.433 8.868 165.065 9.252C165.697 9.628 166.209 10.124 166.601 10.74V3ZM162.868 18.9C163.573 18.9 164.189 18.728 164.717 18.384C165.245 18.032 165.653 17.56 165.941 16.968C166.237 16.376 166.385 15.72 166.385 15C166.385 14.272 166.237 13.612 165.941 13.02C165.645 12.428 165.233 11.96 164.705 11.616C164.185 11.264 163.573 11.088 162.868 11.088C162.173 11.088 161.537 11.264 160.961 11.616C160.393 11.968 159.937 12.44 159.593 13.032C159.257 13.624 159.089 14.28 159.089 15C159.089 15.728 159.261 16.388 159.605 16.98C159.957 17.564 160.417 18.032 160.985 18.384C161.561 18.728 162.189 18.9 162.868 18.9ZM181.155 3H183.651V21H181.155V19.236C180.763 19.86 180.251 20.364 179.619 20.748C178.987 21.124 178.247 21.312 177.399 21.312C176.527 21.312 175.711 21.148 174.951 20.82C174.191 20.492 173.519 20.04 172.935 19.464C172.359 18.88 171.907 18.208 171.579 17.448C171.251 16.688 171.087 15.872 171.087 15C171.087 14.128 171.251 13.312 171.579 12.552C171.907 11.784 172.359 11.112 172.935 10.536C173.519 9.952 174.191 9.496 174.951 9.168C175.711 8.84 176.527 8.676 177.399 8.676C178.247 8.676 178.987 8.868 179.619 9.252C180.251 9.628 180.763 10.124 181.155 10.74V3ZM177.423 18.9C178.127 18.9 178.743 18.728 179.271 18.384C179.799 18.032 180.207 17.56 180.495 16.968C180.791 16.376 180.939 15.72 180.939 15C180.939 14.272 180.791 13.612 180.495 13.02C180.199 12.428 179.787 11.96 179.259 11.616C178.739 11.264 178.127 11.088 177.423 11.088C176.727 11.088 176.091 11.264 175.515 11.616C174.947 11.968 174.491 12.44 174.147 13.032C173.811 13.624 173.643 14.28 173.643 15C173.643 15.728 173.815 16.388 174.159 16.98C174.511 17.564 174.971 18.032 175.539 18.384C176.115 18.728 176.743 18.9 177.423 18.9ZM186.526 21V9H189.022V10.272C189.438 9.776 189.95 9.384 190.558 9.096C191.166 8.808 191.822 8.664 192.526 8.664C192.974 8.664 193.418 8.724 193.858 8.844L192.862 11.364C192.55 11.244 192.238 11.184 191.926 11.184C191.398 11.184 190.914 11.316 190.474 11.58C190.034 11.836 189.682 12.184 189.418 12.624C189.154 13.064 189.022 13.552 189.022 14.088V21H186.526ZM199.962 21.312C198.858 21.312 197.85 21.028 196.938 20.46C196.034 19.892 195.31 19.132 194.766 18.18C194.23 17.22 193.962 16.16 193.962 15C193.962 14.12 194.118 13.3 194.43 12.54C194.742 11.772 195.17 11.1 195.714 10.524C196.266 9.94 196.906 9.484 197.634 9.156C198.362 8.828 199.138 8.664 199.962 8.664C200.882 8.664 201.726 8.856 202.494 9.24C203.262 9.616 203.918 10.14 204.462 10.812C205.006 11.476 205.406 12.244 205.662 13.116C205.918 13.98 205.994 14.9 205.89 15.876H196.638C196.742 16.428 196.942 16.928 197.238 17.376C197.542 17.816 197.926 18.164 198.39 18.42C198.862 18.676 199.386 18.808 199.962 18.816C200.57 18.816 201.122 18.664 201.618 18.36C202.122 18.056 202.534 17.636 202.854 17.1L205.386 17.688C204.906 18.752 204.182 19.624 203.214 20.304C202.246 20.976 201.162 21.312 199.962 21.312ZM196.554 13.968H203.37C203.29 13.392 203.086 12.872 202.758 12.408C202.438 11.936 202.034 11.564 201.546 11.292C201.066 11.012 200.538 10.872 199.962 10.872C199.394 10.872 198.866 11.008 198.378 11.28C197.898 11.552 197.498 11.924 197.178 12.396C196.866 12.86 196.658 13.384 196.554 13.968ZM211.524 21.228C210.892 21.188 210.276 21.06 209.676 20.844C209.076 20.628 208.548 20.336 208.092 19.968C207.644 19.592 207.308 19.152 207.084 18.648L209.208 17.736C209.312 17.952 209.492 18.164 209.748 18.372C210.012 18.58 210.32 18.752 210.672 18.888C211.024 19.016 211.392 19.08 211.776 19.08C212.152 19.08 212.5 19.028 212.82 18.924C213.148 18.812 213.416 18.644 213.624 18.42C213.832 18.196 213.936 17.928 213.936 17.616C213.936 17.264 213.816 16.992 213.576 16.8C213.344 16.6 213.052 16.448 212.7 16.344C212.348 16.24 211.996 16.14 211.644 16.044C210.86 15.868 210.14 15.628 209.484 15.324C208.836 15.012 208.32 14.616 207.936 14.136C207.552 13.648 207.36 13.052 207.36 12.348C207.36 11.58 207.568 10.916 207.984 10.356C208.4 9.788 208.944 9.352 209.616 9.048C210.296 8.744 211.02 8.592 211.788 8.592C212.748 8.592 213.628 8.796 214.428 9.204C215.228 9.612 215.84 10.172 216.264 10.884L214.284 12.06C214.164 11.82 213.984 11.604 213.744 11.412C213.504 11.22 213.232 11.068 212.928 10.956C212.624 10.836 212.308 10.768 211.98 10.752C211.572 10.736 211.192 10.784 210.84 10.896C210.496 11 210.22 11.168 210.012 11.4C209.804 11.632 209.7 11.928 209.7 12.288C209.7 12.64 209.824 12.904 210.072 13.08C210.32 13.248 210.632 13.384 211.008 13.488C211.392 13.592 211.784 13.708 212.184 13.836C212.896 14.06 213.564 14.336 214.188 14.664C214.812 14.984 215.316 15.38 215.7 15.852C216.084 16.324 216.268 16.9 216.252 17.58C216.252 18.332 216.024 18.992 215.568 19.56C215.12 20.128 214.536 20.56 213.816 20.856C213.096 21.152 212.332 21.276 211.524 21.228ZM221.907 21.228C221.275 21.188 220.659 21.06 220.059 20.844C219.459 20.628 218.931 20.336 218.475 19.968C218.027 19.592 217.691 19.152 217.467 18.648L219.591 17.736C219.695 17.952 219.875 18.164 220.131 18.372C220.395 18.58 220.703 18.752 221.055 18.888C221.407 19.016 221.775 19.08 222.159 19.08C222.535 19.08 222.883 19.028 223.203 18.924C223.531 18.812 223.799 18.644 224.007 18.42C224.215 18.196 224.319 17.928 224.319 17.616C224.319 17.264 224.199 16.992 223.959 16.8C223.727 16.6 223.435 16.448 223.083 16.344C222.731 16.24 222.379 16.14 222.027 16.044C221.243 15.868 220.523 15.628 219.867 15.324C219.219 15.012 218.703 14.616 218.319 14.136C217.935 13.648 217.743 13.052 217.743 12.348C217.743 11.58 217.951 10.916 218.367 10.356C218.783 9.788 219.327 9.352 219.999 9.048C220.679 8.744 221.403 8.592 222.171 8.592C223.131 8.592 224.011 8.796 224.811 9.204C225.611 9.612 226.223 10.172 226.647 10.884L224.667 12.06C224.547 11.82 224.367 11.604 224.127 11.412C223.887 11.22 223.615 11.068 223.311 10.956C223.007 10.836 222.691 10.768 222.363 10.752C221.955 10.736 221.575 10.784 221.223 10.896C220.879 11 220.603 11.168 220.395 11.4C220.187 11.632 220.083 11.928 220.083 12.288C220.083 12.64 220.207 12.904 220.455 13.08C220.703 13.248 221.015 13.384 221.391 13.488C221.775 13.592 222.167 13.708 222.567 13.836C223.279 14.06 223.947 14.336 224.571 14.664C225.195 14.984 225.699 15.38 226.083 15.852C226.467 16.324 226.651 16.9 226.635 17.58C226.635 18.332 226.407 18.992 225.951 19.56C225.503 20.128 224.919 20.56 224.199 20.856C223.479 21.152 222.715 21.276 221.907 21.228Z" fill="#12372A"/>
</svg>